<svg width="1920" height="1508" viewBox="0 0 1920 1508" fill="none" xmlns="http://www.w3.org/2000/svg">
<path d="M2398.28 1325.03L2267.2 1458.36L2206.43 1504.14M-378 1230.32L-358.35 1255.9L-210.493 1396.27L-57.6803 1504.14M-378 1015.46L-366.436 1036.66L-254.446 1179.52L-117.023 1307.75L43.3543 1419.24M43.3543 1419.24L208.644 1504.14M43.3543 1419.24L121.913 1327.22M43.3543 1419.24L-25.5962 1504.14M2398.28 184.451L2372.24 116.29L2299.99 -9.116M1981.01 1504.14L1996.45 1495.79L2170 1367.1L2312.86 1224.41L2398.28 1107.73M-245.794 -9.116L-264.054 14.8689M-264.054 14.8689L-332.352 137.029M-264.054 14.8689L-166.236 45.8097M-264.054 14.8689L-355.35 -9.116M-332.352 137.029L-378 259.357M-332.352 137.029L-227.796 158.527M-332.352 137.029L-378 129.99M-378 717.73L-336.178 837.277L-256.88 979.249L-152.715 1109.46L-25.6831 1226.06L121.913 1327.22M121.913 1327.22L287.464 1411.19L467.926 1476.23L588.264 1504.14M121.913 1327.22L198.166 1244.06M1060.14 -9.116L1049.84 97.4895L1039.45 214L1030.05 328.236L1021.66 439.351L1014.27 546.673L1007.88 649.612L1002.45 747.66L997.883 840.397L994.231 927.527L991.406 1008.71M991.406 1008.71L990.101 1056.6M991.406 1008.71L1008.36 1011.45M991.406 1008.71L974.059 1007.79L956.538 1008.76L939.062 1011.67L921.802 1016.64L905.282 1023.55L890.414 1031.98L877.284 1041.85M2398.28 1287.01L2312.85 1224.41L2207.56 1150.69L2104.52 1083.2L2004.27 1023.34L1907.41 972.547L1814.46 932.081L1726.08 903.163M1726.08 903.163L1642.87 886.976M1726.08 903.163L1641.39 980.556L1540.96 1049.52L1425.41 1108.28L1297.72 1154.31L1165.48 1184.83L1031.23 1199.92M1726.08 903.163L1794.68 819.109L1847.03 729.997M1642.87 886.976L1553.44 880.864M1642.87 886.976L1567.01 955.643L1477.36 1016.77L1374.37 1068.78L1260.9 1109.46L1143.48 1136.4L1024.36 1149.72L905.498 1149.8M1642.87 886.976L1704.65 812.196L1752.08 732.822L1784.99 650.159L1803.29 565.557L1806.94 480.197L1795.99 395.301L1770.34 311.88L1729.99 230.904L1675.47 153.932L1610.09 85.2223L1535.79 25.365M1553.44 880.864L1472.75 884.236L1400.54 895.997L1336.42 915.261L1279.9 940.974L1244.03 972.505L1200.21 998.598L1196.91 1001L1195.69 1002.01L1190.86 1005.22M1553.44 880.864L1487.14 940.342L1409.15 993.118L1319.81 1037.97L1221.56 1073.04L1120.04 1096.22L1017.14 1107.69L914.454 1107.73M1553.44 880.864L1607.61 816.032L1649.48 747.069L1678.87 675.072L1695.65 601.22L1699.69 526.566L1690.95 452.081L1669.39 378.735L1634.87 307.411L1587.83 239.461L1531.14 178.677L1466.45 125.605M-2.29382 -9.116L-69.7663 82.7359M-69.7663 82.7359L-124.935 186.179M-69.7663 82.7359L24.6175 126.448M-69.7663 82.7359L-166.236 45.8097M-124.935 186.179L-163.062 295.736M-124.935 186.179L-24.4654 220.872M-124.935 186.179L-227.796 158.527M-163.062 295.736L-182.713 410.266M-163.062 295.736L-57.9841 320.648M-163.062 295.736L-270.923 278.2M-182.713 410.266L-182.321 528.548M-182.713 410.266L-74.5916 424.724M-182.713 410.266L-294.008 403.563M-182.321 528.548L-160.236 649.19M-182.321 528.548L-72.9831 531.919M-182.321 528.548L-295.138 533.311M-160.236 649.19L-114.675 770.675L-46.29 887.397L42.0504 993.96L148.693 1089.02L271.639 1171.13M-160.236 649.19L-51.724 641.012M-160.236 649.19L-272.445 666.051M271.639 1171.13L408.671 1239.08L557.44 1291.56L715.253 1327.48L879.282 1345.81M271.639 1171.13L341.938 1109.92M271.639 1171.13L198.166 1244.06M879.282 1345.81L1046.61 1345.73M879.282 1345.81L888.456 1265.72M879.282 1345.81L869.718 1438.93L863.544 1504.14M1046.61 1345.73L1214.21 1326.59M1046.61 1345.73L1055.05 1438.8M1046.61 1345.73L1038.66 1265.68M1214.21 1326.59L1378.93 1288.02L1537.53 1229.89L1680.52 1155.87L1803.98 1069.33L1907.41 972.546L1990.36 867.796L2052.74 757.229M1214.21 1326.59L1240.6 1417.43M1214.21 1326.59L1189.12 1248.61M2052.74 757.229L2094.57 642.909M2052.74 757.229L2161.91 785.134M2052.74 757.229L1947.54 738.47M2094.57 642.909L2115.96 526.65L2117.09 410.181L2098.22 295.103L2059.57 182.765M2094.57 642.909L2206.47 659.096M2094.57 642.909L1986.49 635.321M2059.57 182.765L2001.4 74.4319L1938.58 -9.116M2059.57 182.765L2162.26 154.775M2059.57 182.765L1959.45 217.753M970.838 -9.116L970.969 93.6529M970.969 93.6529L1049.83 97.4895L1127.04 108.913L1201.77 127.671L1273.2 153.595L1340.41 186.516M970.969 93.6529L891.279 97.6573L811.503 109.714L732.51 130.243L656.386 158.99L587.175 194.442L525.398 235.962M970.969 93.6529L974.36 1056.6M974.36 1056.6L958.447 1056.64H936.405L929.884 1062.46L926.71 1062.12L856.064 1054.45L836.066 1069.67M974.36 1056.6L1000.18 1056.6L1005.66 1056.01L1021.09 1054.28L1036.4 1052.6L1051.44 1050.91M1444.67 -9.116L1394.89 80.3751L1340.41 186.516M1340.41 186.516L1290.59 292.026L1245.47 395.975L1205.03 497.734L1169.21 596.583L1137.87 691.976L1110.96 783.406L1088.22 870.452L1069.52 952.777L1054.66 1030.13L1051.44 1050.91M1340.41 186.516L1402.5 226.393L1458.45 273.099L1507.31 326.507M1051.44 1050.91L1064.13 1049.52L1065.7 1049.14L1066.13 1049.05L1075.65 1046.91L1080.96 1045.68L1110.52 1038.98L1116 1037.71L1127.35 1035.14L1129.56 1033.63L1136.78 1031.06L1144.87 1028.95L1149.13 1026.71L1154.91 1023.93L1159.39 1022.12L1160.34 1021.78L1161.04 1020.9L1161.56 1020.64L1171.69 1015.63L1178.34 1012.3L1179.82 1011.54L1180.3 1011.33L1185.95 1008.5L1188.25 1007.36L1189.34 1006.56L1190.51 1004.84L1190.95 1004.37L1209.08 984.138L1225.77 957.919L1237.99 930.309L1245.6 901.729L1248.46 872.559L1246.51 843.179L1239.6 813.967L1227.6 785.26M1210.6 757.651L1171.43 838.711L1138.43 916.863L1111.26 991.769L1120.91 1008.08L1127.65 1025.03L1129.39 1032.95M1099.31 976.973L1080.96 1045.68M864.504 1047.79L844.94 979.712L818.768 902.531L787.162 821.597L749.861 737.332L706.691 650.117L657.391 560.499L601.787 468.985L539.792 376.248L471.363 282.963L396.5 189.931L315.377 97.9526L241.601 23.8892L203.604 -9.116M664.473 1504.14L688.123 1418.44L715.251 1327.48L741.161 1249.41L765.767 1185.5L788.896 1137.03L813.72 1096.73L836.066 1069.67M836.066 1069.67L922.58 1079.07L1010.7 1079.03L1099.09 1069.2L1186.3 1049.35L1270.85 1019.29L1347.89 980.766L1415.32 935.41L1472.75 884.236L1519.96 828.341L1556.61 768.694L1582.61 706.392L1597.78 642.319L1601.96 577.403L1595.04 512.487L1576.96 448.457L1547.61 386.07M836.066 1069.67L752.509 1051.16M1547.61 386.07L1507.31 326.507M1547.61 386.07L1634.87 307.411L1729.99 230.904L1816.89 170.836L1907.63 118.86L2001.4 74.4319L2097.3 36.7883L2194.69 5.08908L2247.07 -9.116M1547.61 386.07L1468.27 466.034L1396.76 546.631L1332.94 627.101L1276.64 706.813L1227.6 785.26M1507.31 326.507L1433.93 414.186L1367.67 501.822L1308.46 588.7L1256.2 674.144L1210.6 757.65L1227.6 785.26M1507.31 326.507L1587.83 239.461L1675.47 153.932L1755.33 85.7286L1838.63 25.2806L1894.15 -9.116M525.398 235.962L471.358 282.963L425.58 334.811L388.54 390.875L360.847 450.438L342.979 512.866L335.631 577.445L339.5 643.373L355.195 709.849L383.41 775.987L423.449 838.837L473.489 895.617L532.571 945.78L599.521 988.733L673.255 1024.06L752.509 1051.16M525.398 235.962L586.175 335.233L641.301 433.45L690.818 529.98L734.814 624.109L773.375 715.285L806.678 803.049L834.98 886.934L858.412 966.645L877.28 1041.85L869.977 1049.01M525.398 235.962L459.012 136.481L387.149 37.6312L349.195 -9.116M752.509 1051.16L784.723 1038.68L813.286 1036.49M752.509 1051.16L716.512 1075.15L676.472 1111.95L639.127 1157.13L599.392 1217.41L557.439 1291.56L513.53 1378.31L467.924 1476.23L455.665 1504.14M1227.6 785.26L1185.51 861.894L1150.04 936.295L1158.21 956.487L1162.82 976.973L1163.99 997.586L1161.82 1017.99L1159.99 1021.4M458.972 -9.116L387.152 37.6312L315.376 97.9526L254.033 164.724L203.907 237.142L165.736 314.452L140.391 395.808L128.826 480.282L132 566.949L150.955 654.712L186.691 742.475L238.556 826.233L304.202 902.235L382.283 969.596L471.449 1027.51L570.049 1075.19L676.475 1111.95L788.899 1137.03L905.498 1149.8M905.498 1149.8L914.454 1107.73M905.498 1149.8L897.237 1200M1535.79 25.365L1480.36 -9.116M1535.79 25.365L1562.48 -9.116M1535.79 25.365L1466.45 125.605M-125.153 -9.116L-166.236 45.8097M-166.236 45.8097L-227.796 158.527M-227.796 158.527L-270.923 278.2M-270.923 278.2L-294.008 403.563M-270.923 278.2L-378 267.283M-294.008 403.563L-295.138 533.311M-294.008 403.563L-378 403.479M-295.138 533.311L-272.445 666.051M-295.138 533.311L-378 541.783M-272.445 666.051L-223.84 800.014L-149.934 929.045L-53.7245 1047.12L63.0044 1152.67L198.166 1244.06M-272.445 666.051L-378 688.308M198.166 1244.06L349.24 1319.76L513.531 1378.31L688.124 1418.44L869.717 1438.93L1055.05 1438.8M1055.05 1438.8L1240.6 1417.43M1055.05 1438.8L1060.57 1504.14M1240.6 1417.43L1422.84 1374.35L1597.96 1309.52L1755.51 1227.07L1891.15 1130.79L2004.27 1023.34L2094.57 907.336L2161.91 785.134M1240.6 1417.43L1263.94 1504.14M2161.91 785.134L2206.47 659.096M2161.91 785.134L2274.38 821.006M2206.47 659.096L2228.47 531.203L2228.16 403.436L2205.99 277.441L2162.26 154.775M2206.47 659.096L2321.46 682.701M2162.26 154.775L2097.31 36.7883L2062.18 -9.116M2162.26 154.775L2266.73 132.94M1340.16 -9.116L1317.55 43.0269M1317.55 43.0269L1273.21 153.595L1232.6 263.151L1195.82 370.937L1162.82 476.193L1133.61 578.162L1108.05 676.336L1086.05 770.211L1067.53 859.366L1052.31 943.461L1040.18 1022.25L1036.4 1052.6M1317.55 43.0269L1394.89 80.3751L1466.45 125.605M1317.55 43.0269L1235.51 13.6463M1110.52 1038.98L1120.91 1008.08L1150.04 936.297L1138.43 916.864L1124 899.287L1107.13 883.774L1088.22 870.453L1067.53 859.368L1045.4 850.642L1022.05 844.276L997.879 840.399L973.186 839.134L948.188 840.483L923.234 844.572L898.627 851.569L875.02 861.222L853.761 873.11L834.98 886.936L818.765 902.532L805.287 919.562L833.763 994.047L850.022 1044.59M1702.86 -9.116L1681.99 9.85292L1610.09 85.2223L1531.14 178.677L1458.45 273.099L1392.11 367.649L1332.15 461.524M1332.15 461.524L1278.51 554.092L1231.03 644.679L1189.6 732.738L1154 817.718L1124 899.285L1099.31 976.973L1111.26 991.768L1096 1042.27M1332.15 461.524L1367.67 501.823L1396.76 546.632L1417.63 593.337M1332.15 461.524L1291.16 426.2M958.449 1056.64L956.536 1008.76L952.753 927.569L948.189 840.481L942.755 747.744L936.45 649.696L929.278 546.757L921.147 439.435L912.105 328.363M912.105 328.363L902.15 214.127L891.281 97.6573L880.63 -9.116M912.105 328.363L971.404 325.285L1030.05 328.237L1087.44 336.919L1142.91 351.21L1195.82 370.937L1245.47 395.976L1291.16 426.2M912.105 328.363L852.849 337.594M133.217 -9.116L88.1336 38.3485L24.6175 126.448M24.6175 126.448L-24.4654 220.872M24.6175 126.448L116.13 177.707L203.906 237.142L300.158 312.892L388.542 390.875L469.099 470.207L541.832 550.172M-24.4654 220.872L-57.9841 320.648M-24.4654 220.872L72.6996 263.405L165.735 314.452L267.509 381.012L360.849 450.439L445.667 521.972L522.139 594.813M-57.9841 320.648L-74.5916 424.724M-57.9841 320.648L43.4859 353.738M-74.5916 424.724L-72.9831 531.919M-74.5916 424.724L29.5297 447.782L128.825 480.282L236.946 526.608L335.633 577.445L425.017 631.991L505.314 689.447M-72.9831 531.919L-51.724 641.012M-72.9831 531.919L32.0511 544.397L131.999 566.949L240.598 602.441L339.503 643.373L428.843 688.897M-51.724 641.012L-9.33636 750.568L53.4846 855.614L134.042 951.301L230.773 1036.45L341.938 1109.92M-51.724 641.012L52.2678 642.529M341.938 1109.92L465.536 1170.58L599.394 1217.41L741.164 1249.41L888.456 1265.72M341.938 1109.92L408.67 1061.66L471.447 1027.51L538.833 1002.39L599.523 988.733L653.823 985.403L702.036 991.263L744.554 1005.26M888.456 1265.72L1038.66 1265.68M888.456 1265.72L897.237 1200M1038.66 1265.68L1189.12 1248.61M1038.66 1265.68L1031.23 1199.92M1189.12 1248.61L1337.16 1214.21L1479.88 1162.4L1608.87 1096.27L1720.56 1018.83L1814.46 932.08L1890.15 837.994L1947.54 738.47M1189.12 1248.61L1165.47 1184.83L1143.48 1136.4L1120.04 1096.22L1099.09 1069.2L1080.48 1054.07M1947.54 738.47L1986.49 635.321M1947.54 738.47L1847.03 729.997M1986.49 635.321L2007.01 530.191L2009.27 424.64L1993.4 320.057L1959.45 217.753M1986.49 635.321L1882.98 637.429L1784.99 650.159L1678.86 675.073L1582.61 706.392L1495.97 743.234L1418.54 784.796M1959.45 217.753L1907.63 118.86L1838.63 25.2806L1804.81 -9.116M1959.45 217.753L1862.76 260.538M942.363 1056.64L939.059 1011.66L931.974 931.026L923.235 844.57L912.801 752.634L900.628 655.513L886.585 553.587L870.674 447.403L852.849 337.594M852.849 337.594L833.112 224.75L811.505 109.714L788.073 -6.62963L787.507 -9.116M852.849 337.594L794.202 353.233L737.859 375.068M2398.28 1056.9L2312.42 1010.44L2202.12 955.308L2094.57 907.337L1990.36 867.797L1890.15 837.995L1794.68 819.11L1704.64 812.197L1607.61 816.033L1519.96 828.342L1441.32 848.069L1371.37 874.373L1309.59 906.367L1279.9 940.975L1241.6 965.297L1230.55 972.337L1200.03 998.346M2003.27 1504.14L1996.45 1495.79L1913.84 1398.46L1833.46 1308.42L1755.51 1227.07L1680.52 1155.87L1608.87 1096.26L1540.96 1049.52L1477.36 1016.76L1409.15 993.116L1347.89 980.765L1293.25 978.616M1293.25 978.616L1244.82 985.486L1202.3 1000.37M1293.25 978.616L1227.3 1011.49L1164.21 1033.84L1160 1035.35L1155 1037.12L1107.52 1047.92L1093.31 1051.12L1080.48 1054.07M1293.25 978.616L1351.11 939.834L1400.54 895.996L1441.32 848.067L1473.19 796.851M926.016 1055.5L921.799 1016.64L911.408 936.885L898.627 851.567L883.237 760.896L865.195 665.292L844.371 565.136L820.721 460.934L794.201 353.232L764.812 242.749L732.511 130.243L697.383 16.5546L688.863 -9.116M1124.04 1034.89L1127.65 1025.03L1158.21 956.488L1195.38 886.007L1185.52 861.896L1171.43 838.712L1154 817.719L1133.74 799.257L1110.96 783.407L1086.05 770.213L1059.44 759.843L1031.44 752.298L1002.44 747.661L972.751 746.143L942.754 747.746L912.8 752.635L883.237 760.897L854.891 772.405L829.329 786.569L806.679 803.05L787.159 821.598L770.856 841.915L757.988 863.751L794.636 937.856L824.938 1009.39L836.329 1041.55M1124.04 1034.89L1123.96 1034.89L1123.09 1035.19L1116 1037.72M1124.04 1034.89L1129.56 1033.63L1136.78 1031.06L1149.13 1026.71L1158.56 1024.06L1159.87 1022.58L1160.34 1021.78L1168.6 1020.1L1188.73 1013.39L1244.82 985.489L1294.16 952.524L1336.42 915.262L1371.37 874.372L1398.8 830.66L1418.54 784.796M909.583 1053.73L905.279 1023.55L891.759 945.02L875.021 861.22L854.892 772.403L831.242 678.95L803.897 581.239L772.813 479.734L737.859 375.068M737.859 375.068L699.08 267.914L656.388 158.99L609.958 49.0978L583.394 -9.116M737.859 375.068L686.777 402.005L641.302 433.451L601.784 468.986L568.526 508.062L541.832 550.172M281.509 -9.116L241.599 23.8892L172.735 97.6161L116.132 177.707L72.7006 263.404L43.4859 353.738M43.4859 353.738L29.5307 447.782L32.0521 544.397L52.2678 642.529M43.4859 353.738L140.39 395.808L246.206 452.504L342.981 512.866L430.799 576.096L509.836 641.433M52.2678 642.529L91.3513 740.831L148.65 834.875L221.601 920.361L308.811 996.279L408.672 1061.66L519.401 1115.57L639.13 1157.14L765.77 1185.5L897.237 1200M52.2678 642.529L150.954 654.712L257.944 679.035L355.197 709.849L442.885 746.227L521.356 787.369M897.237 1200L1031.23 1199.92M1031.23 1199.92L1024.36 1149.72L1017.14 1107.69L1010.71 1079.03L1005.1 1062.42L1000.18 1056.6M1847.03 729.997L1882.98 637.429L1902.5 542.837L1905.63 447.697L1892.33 353.19L1862.76 260.538M1847.03 729.997L1752.08 732.821L1649.48 747.069L1556.61 768.694L1473.19 796.851M1862.76 260.538L1816.9 170.836L1755.34 85.7286L1682 9.85292L1658.08 -9.116M1862.76 260.538L1770.33 311.88L1669.39 378.735L1576.96 448.457L1493.1 520.243L1417.63 593.337M-378 15.9227L-363.697 -9.116M1713.21 1504.14L1725.95 1499.33L1913.85 1398.46L2074.66 1281.11L2207.56 1150.68L2312.42 1010.44L2389.37 863.454L2398.28 836.307M1482.92 1504.14L1468.58 1471.81L1422.84 1374.35L1378.93 1288.02L1337.15 1214.21L1297.72 1154.31L1260.9 1109.46L1221.56 1073.04L1186.3 1049.35L1155 1037.13L1127.35 1035.15M1242.77 -9.116L1235.51 13.6463M1235.51 13.6463L1201.78 127.671L1170.91 240.473L1142.91 351.209L1117.83 459.163L1095.57 563.619L1076.14 664.028L1059.44 759.842L1045.4 850.64L1033.83 936.127L1024.66 1016.01L1021.1 1054.28M1235.51 13.6463L1149.74 -7.55687L1139.26 -9.116M-378 1420.42L-305.832 1490.19L-286.356 1504.14M893.889 1052.01L890.411 1031.98L874.064 955.011L853.761 873.108L829.329 786.567L800.548 695.727L767.291 601.009L729.381 502.918L686.776 402.004L639.345 298.939L587.176 194.442L530.311 89.311L472.577 -9.116M1099.31 976.975L1085.31 963.991L1069.53 952.779L1052.31 943.463L1033.83 936.129L1014.4 930.775L994.229 927.529L973.622 926.433L952.754 927.572L931.974 931.028L911.41 936.887L891.76 945.023L874.066 955.013L858.415 966.648L844.938 979.715L833.765 994.047L824.939 1009.39L818.592 1025.54L816.288 1035.86M914.454 1107.73L922.583 1079.07L929.886 1062.46L1005.27 1062.42L1020.53 1060.69L1080.48 1054.07M914.454 1107.73L813.723 1096.73L716.515 1075.15L624.393 1043.53L538.834 1002.39L461.32 952.355L393.152 894.1L335.635 828.214L289.9 755.458L257.946 679.034L240.599 602.441L236.948 526.608L246.208 452.503L267.51 381.012L300.16 312.892L343.373 248.946L396.499 189.931L459.016 136.481L530.313 89.311L609.959 49.0978L697.386 16.5546L788.074 -6.62963L804.42 -9.116M873.806 1049.86L856.068 1054.45L839.593 1050.83L784.727 1038.69L782.597 1037.97L716.95 1015.54L673.259 1024.06L624.394 1043.53L570.051 1075.19L519.402 1115.57L465.538 1170.58L408.673 1239.08L349.243 1319.76L287.466 1411.19L228.602 1504.14M1333.16 1504.14L1468.58 1471.81L1660.87 1399.81L1833.46 1308.42L1981.53 1201.86L2104.52 1083.2L2202.12 955.306L2274.38 821.006M2274.38 821.006L2321.46 682.701M2274.38 821.006L2389.37 863.454L2398.28 867.121M2321.46 682.701L2343.72 542.795L2341.72 403.352L2315.9 266.187L2266.73 132.94M2321.46 682.701L2398.28 702.261M2266.73 132.94L2194.69 5.08908L2183.6 -9.116M2266.73 132.94L2372.24 116.29L2398.28 113.255M1080.48 1054.07L1064.14 1049.52M1067.88 1039.57L1054.66 1030.13L1040.18 1022.25L1024.66 1016.01L1008.36 1011.45M1008.36 1011.45L1014.4 930.773L1022.05 844.275L1031.44 752.296L1042.62 655.092L1055.66 553.08L1070.57 446.854L1087.44 336.919L1106.26 224.033L1127.05 108.913L1149.74 -7.55687L1150.09 -9.116M1008.36 1011.45L1005.66 1056.01M749.945 1006.14L746.902 1004.25M749.945 1006.14L749.206 1005.55L746.293 1003.49M749.945 1006.14L755.075 1009.9M746.902 1004.25L746.293 1003.49M746.902 1004.25L745.598 1004.67M746.293 1003.49L715.948 978.281M746.293 1003.49L703.167 978.87M715.948 978.281L689.386 948.689L667.779 915.768L609.392 873.825L542.79 836.014M715.948 978.281L745.598 1004.67M715.948 978.281L704.036 970.988L666.387 948.015M542.79 836.014L467.622 803.134L383.412 775.988L289.898 755.459L186.69 742.477L91.3503 740.832L-9.3367 750.57L-114.675 770.677L-223.84 800.015L-336.178 837.279L-378 853.296M542.79 836.014L521.356 787.369M542.79 836.014L572.7 882.087M1210.6 757.647L1189.6 732.735L1165.21 710.774L1137.87 691.973L1108.05 676.334L1076.14 664.025L1042.62 655.089L1007.88 649.609L972.361 647.796L936.451 649.694L900.628 655.51L865.197 665.29L831.243 678.948L800.55 695.725L773.379 715.283L749.859 737.329L730.252 761.484L714.688 787.45L703.385 814.85L748.685 886.721L786.987 957.116L818.593 1025.53L823.505 1038.3M1466.45 125.605L1402.5 226.393L1344.07 326.845L1291.16 426.2M1291.16 426.2L1243.77 523.742L1201.86 618.797L1165.21 710.776L1133.74 799.255L1107.13 883.773L1085.31 963.989L1067.87 1039.57L1075.66 1046.91M1067.87 1039.57L1066.13 1049.05M879.023 1050.41L877.284 1041.85M787.25 1025.62L783.206 1018.33L781.12 997.586L782.424 977.099L786.989 957.119L794.641 937.854L805.292 919.561L770.86 841.914L730.255 761.486L683.171 678.697L629.307 594.053L568.53 508.061L500.622 421.436L425.585 334.811L343.375 248.946L254.035 164.724L172.738 97.6161L88.1367 38.3485L8.66516 -9.116M766.422 1015.67L761.727 1009.22M766.422 1015.67L765.769 1015.37M766.422 1015.67L768.378 1016.6L775.422 1019.97M761.727 1009.22L750.597 984.772M761.727 1009.22L765.769 1015.37M761.727 1009.22L755.249 1002.05L718.383 961.123M750.597 984.772L773.639 1017.48L775.422 1019.97M750.597 984.772L743.903 959.985M750.597 984.772L705.123 931.869M705.123 931.869L718.383 961.123M705.123 931.869L697.211 902.235L692.603 897.43L642.781 845.624M705.123 931.869L652.084 880.906M652.084 880.906L645.432 875.679L590.959 832.514M652.084 880.906L667.779 915.767L711.253 954.716L718.383 961.123M652.084 880.906L642.781 845.624M590.959 832.514L580.177 790.783M590.959 832.514L609.392 873.824L634.912 912.9L679.734 942.365L689.386 948.688L727.382 980.893L736.598 988.734M590.959 832.514L521.356 787.369M580.177 790.783L576.743 749.135M580.177 790.783L637.26 840.775L642.781 845.624M580.177 790.783L573.569 785.892L508.966 738.302L428.843 688.897M576.743 749.135L580.264 708.162L509.836 641.433M576.743 749.135L639.65 810.384L642.781 845.624M576.743 749.135L505.314 689.447M509.836 641.433L522.139 594.813M509.836 641.433L505.314 689.447M765.769 1015.37L760.292 1012.76L757.249 1011.03L755.075 1009.9M718.383 961.123L736.598 988.734M505.314 689.447L508.966 738.303L521.356 787.369M784.899 1024.48L783.203 1018.33L743.903 959.985M743.903 959.985L741.468 935.157L743.119 910.666L748.684 886.723L757.988 863.75L714.687 787.452L664.431 709.427L606.871 630.136L541.832 550.172M743.903 959.985L740.076 955.265L697.211 902.236L694.428 872.602L696.558 843.348L703.384 814.853L650.78 741.885L590.438 668.328L522.139 594.813M541.832 550.172L522.139 594.813M2398.28 406.048L2341.72 403.35L2228.17 403.434L2117.09 410.179L2009.27 424.638L1905.63 447.695L1806.94 480.195L1699.69 526.564L1601.96 577.401L1513.58 631.905L1434.32 689.402L1363.98 749.09L1302.16 810.339L1298.9 845.031L1289.94 879.049L1275.51 911.929L1255.64 943.206L1230.56 972.333L1201.34 999.65L1190.95 1005.59L1189.13 1006.39L1184.65 1007.53L1179.82 1011.54M2398.28 550.931L2343.72 542.796L2228.47 531.203L2115.96 526.651L2007.01 530.192L1902.5 542.838L1803.29 565.558L1695.65 601.22L1597.79 642.32L1509.45 688.013L1430.45 737.501L1366.85 785.218L1360.37 790.108L1298.9 845.034L1245.6 901.729L1209.6 947.466L1200.04 959.564L1193.6 983.465L1183.34 1006.52L1180.3 1011.33M1728.95 1504.14L1725.95 1499.34L1660.87 1399.81L1597.96 1309.52L1537.53 1229.89L1479.88 1162.41L1425.41 1108.28L1374.37 1068.78L1319.81 1037.97L1270.86 1019.3L1227.29 1011.5L1188.73 1013.4L1159.87 1023.01L1154.91 1023.93M1417.63 593.337L1350.37 667.063L1291.12 740.789L1239.6 813.967L1195.38 886.006L1201.04 910.497L1202.56 935.157L1200.04 959.564L1161.82 1017.99L1161.04 1020.9M1417.63 593.337L1430.1 641.14L1434.32 689.405L1430.45 737.501L1418.54 784.796M1418.54 784.796L1357.24 825.517L1350.02 830.322L1333.03 869.272L1275.51 911.931L1232.21 951.934L1225.77 957.92L1183.34 1006.52M1137.22 1030.21L1137.65 1029.32L1162.82 976.971L1201.04 910.495L1246.51 843.177L1299.59 775.478L1360.67 707.907L1350.37 667.061L1332.94 627.099L1308.46 588.699L1278.51 554.09L1243.77 523.74L1205.04 497.732L1162.82 476.191L1117.83 459.161L1070.57 446.852L1021.66 439.349L971.665 436.821L921.147 439.433L870.674 447.401L820.721 460.932L772.812 479.732L729.382 502.916L690.819 529.978L657.388 560.497L629.303 594.051L606.871 630.134L590.437 668.325L580.264 708.16L642.433 775.647L696.558 843.345L743.119 910.664L782.42 977.097L810.114 1032.78L810.722 1033.96M572.7 882.087L609.696 923.524M572.7 882.087L634.912 912.902L666.387 948.015M572.7 882.087L502.358 857.091L423.451 838.838L335.633 828.215L238.555 826.234L148.649 834.876L53.4843 855.615L-46.29 887.399L-149.933 929.047L-256.88 979.251L-366.436 1036.66L-378 1043.2M609.696 923.524L653.084 960.07L703.167 978.87M609.696 923.524L666.387 948.015M609.696 923.524L545.572 905.778L473.491 895.618L393.151 894.101L304.201 902.236L221.6 920.362L134.042 951.302L42.0505 993.962L-53.7239 1047.12L-152.715 1109.46L-254.446 1179.52L-358.35 1255.9L-378 1271.03M703.167 978.87L745.598 1004.67M703.167 978.87L666.387 948.015M755.075 1009.9L756.771 1010.53M755.075 1009.9L745.598 1004.67M775.422 1019.97L785.029 1024.99L787.55 1026.17L789.898 1026.88L798.593 1030.63L811.679 1035.95L814.765 1036.16L817.244 1036.2L823.591 1038.56L827.025 1039.53M788.638 1028.07L778.248 1024.02L755.729 1016.85L702.037 991.266L653.085 960.072L596.35 948.691L532.574 945.783L461.32 952.358L382.283 969.599L308.811 996.282L230.774 1036.45L148.694 1089.02L63.0058 1152.67L-25.6822 1226.06L-117.022 1307.75L-210.492 1396.27L-305.832 1490.19L-319.657 1504.14M755.641 1009.3L754.815 1008.67M754.815 1008.67L754.38 1008.5L736.598 988.734M754.815 1008.67L755.51 1009.47L757.249 1011.03L760.292 1012.76M754.815 1008.67L736.598 988.734M1473.19 796.851L1495.97 743.233L1509.44 688.011L1513.57 631.906L1508.14 575.758L1493.1 520.242L1468.27 466.033L1433.93 414.185L1392.11 367.647L1344.07 326.843L1290.59 292.025L1232.6 263.15L1170.91 240.472L1106.26 224.032L1039.44 213.999L971.143 210.669L902.15 214.126L833.112 224.749L764.814 242.748L699.081 267.913L639.347 298.938L586.178 335.232L539.79 376.247L500.619 421.435L469.1 470.206L445.668 521.971L430.8 576.095L425.018 631.99L428.843 688.897M1473.19 796.851L1398.8 830.659L1333.03 869.271L1309.59 906.366L1264.38 937.222L1255.64 943.207L1209.08 984.138L1191.95 1003.95L1190.95 1005.59L1189.6 1006.69M428.843 688.897L442.886 746.225L467.623 803.132L502.359 857.088L545.572 905.775L596.35 948.687L653.823 985.402L716.948 1015.54L755.728 1016.85L778.248 1024.01L785.03 1024.98L787.247 1025.62L788.508 1026.21L789.247 1027.47L798.594 1030.63L810.723 1033.96L814.766 1036.15L823.591 1038.56L827.026 1039.53L836.33 1041.55L864.501 1047.79L869.979 1049.01L873.805 1049.85L879.021 1050.4L893.89 1052L909.584 1053.73L926.017 1055.5L936.407 1056.64M2398.28 261.804L2315.9 266.188L2205.99 277.443L2098.22 295.105L1993.4 320.059L1892.32 353.192L1795.99 395.303L1690.95 452.083L1595.05 512.489L1508.14 575.761L1430.1 641.141L1360.67 707.911L1363.98 749.094L1360.37 790.109L1350.02 830.324L1296.16 874.037L1289.94 879.053L1237.99 930.311L1193.6 983.466L1172.65 1014.2L1171.69 1015.63M1149.56 1025.83L1149.69 1025.58L1164 997.587L1202.56 935.158L1248.47 872.56L1302.16 810.342L1299.59 775.481L1291.12 740.789L1276.64 706.814L1256.21 674.145L1231.04 644.68L1201.86 618.798L1169.21 596.584L1133.61 578.163L1095.57 563.62L1055.66 553.081L1014.27 546.674L972.015 544.524L929.279 546.758L886.587 553.588L844.374 565.137L803.899 581.24L767.293 601.01L734.818 624.11L706.69 650.118L683.17 678.698L664.433 709.428L650.782 741.885L642.435 775.65L639.652 810.384L694.43 872.602L741.47 935.158L781.118 997.587L797.813 1029.2L798.074 1029.67M2314.81 1504.14L2267.2 1458.37L2169.99 1367.1L2074.65 1281.11L1981.53 1201.86L1891.15 1130.79L1803.98 1069.33L1720.55 1018.83L1641.39 980.56L1567 955.646L1487.14 940.345L1415.32 935.414L1351.11 939.839L1294.16 952.527L1244.03 972.508L1201.34 999.655L1195.69 1002.01M-378 -10H2398.24V1506.59H-378V-10Z" stroke="url(#paint0_linear_133_1863)" stroke-width="1.08501" stroke-linecap="round" stroke-linejoin="round"/>
<defs>
<linearGradient id="paint0_linear_133_1863" x1="1010" y1="638.667" x2="1010.13" y2="1506.59" gradientUnits="userSpaceOnUse">
<stop stop-color="#222233"/>
<stop offset="1" stop-color="#1A1A3E" stop-opacity="0"/>
</linearGradient>
</defs>
</svg>
