<svg width="1920" height="1519" viewBox="0 0 1920 1519" fill="none" xmlns="http://www.w3.org/2000/svg">
<path d="M1984.28 1336.03L1853.2 1469.36L1792.43 1515.14M-792 1241.32L-772.35 1266.9M-772.35 1266.9L-624.493 1407.27L-471.68 1515.14M-772.35 1266.9L-668.446 1190.52L-566.715 1120.46L-467.724 1058.12L-371.95 1004.96L-279.958 962.302L-192.4 931.362L-109.799 913.236L-20.8495 905.101L59.4907 906.618L131.572 916.778L195.696 934.524M-772.35 1266.9L-792 1282.03M-792 1026.46L-780.436 1047.66L-668.446 1190.52L-531.023 1318.75L-370.646 1430.24M-370.646 1430.24L-205.356 1515.14M-370.646 1430.24L-292.087 1338.22M-370.646 1430.24L-439.596 1515.14M1984.28 195.451L1958.24 127.29L1885.99 1.884M1567.01 1515.14L1582.45 1506.79L1756 1378.1L1898.86 1235.41L1984.28 1118.73M-659.794 1.884L-678.054 25.8689M-678.054 25.8689L-746.352 148.029M-678.054 25.8689L-580.236 56.8097M-678.054 25.8689L-769.35 1.884M-746.352 148.029L-792 270.357M-746.352 148.029L-641.796 169.527M-746.352 148.029L-792 140.99M-792 728.73L-750.178 848.277L-670.88 990.249L-566.715 1120.46L-439.683 1237.06L-292.087 1338.22M-292.087 1338.22L-126.536 1422.19L53.9258 1487.23L174.264 1515.14M-292.087 1338.22L-215.834 1255.06M646.139 1.884L635.835 108.49L625.445 225L616.054 339.236L607.664 450.351L600.273 557.673L593.883 660.612L588.448 758.66L583.883 851.397L580.231 938.527L577.406 1019.71M577.406 1019.71L576.101 1067.6M577.406 1019.71L594.36 1022.45M577.406 1019.71L560.059 1018.79L542.538 1019.76L525.062 1022.67L507.802 1027.64L491.282 1034.55L476.414 1042.98L463.284 1052.85M1984.28 1298.01L1898.85 1235.41L1793.56 1161.69L1690.52 1094.2L1590.27 1034.34L1493.41 983.547L1400.46 943.081L1312.08 914.163M1312.08 914.163L1228.87 897.976M1312.08 914.163L1227.39 991.556L1126.96 1060.52L1011.41 1119.28L883.725 1165.31L751.476 1195.83L617.226 1210.92M1312.08 914.163L1380.68 830.109L1433.03 740.997M1228.87 897.976L1139.44 891.864M1228.87 897.976L1153.01 966.643L1063.36 1027.77L960.37 1079.78L846.902 1120.46L729.478 1147.4L610.358 1160.72L491.498 1160.8M1228.87 897.976L1290.65 823.196L1338.08 743.822M1139.44 891.864L1058.75 895.236L986.542 906.997L922.417 926.261L865.9 951.974L830.034 983.505L786.212 1009.6L782.908 1012L781.691 1013.01L776.864 1016.22M1139.44 891.864L1073.14 951.342L995.15 1004.12L905.81 1048.97L807.558 1084.04L706.044 1107.22L603.141 1118.69L500.454 1118.73M1139.44 891.864L1193.61 827.032L1235.48 758.069L1264.87 686.072L1281.65 612.22L1285.69 537.566L1276.95 463.081L1255.39 389.735L1220.87 318.411L1173.83 250.461L1117.14 189.677L1052.45 136.605M-416.294 1.884L-483.766 93.7359M-483.766 93.7359L-538.935 197.179M-483.766 93.7359L-389.383 137.448M-483.766 93.7359L-580.236 56.8097M-538.935 197.179L-577.062 306.736M-538.935 197.179L-438.465 231.872M-538.935 197.179L-641.796 169.527M-577.062 306.736L-596.713 421.266M-577.062 306.736L-471.984 331.648M-577.062 306.736L-684.923 289.2M-596.713 421.266L-596.321 539.548M-596.713 421.266L-488.592 435.724M-596.713 421.266L-708.008 414.563M-596.321 539.548L-574.236 660.19M-596.321 539.548L-486.983 542.919M-596.321 539.548L-709.138 544.311M-574.236 660.19L-528.675 781.675L-460.29 898.397L-371.95 1004.96L-265.307 1100.02L-142.361 1182.13M-574.236 660.19L-465.724 652.012M-574.236 660.19L-686.445 677.051M-142.361 1182.13L-5.32947 1250.08L143.44 1302.56L301.253 1338.48L465.282 1356.81M-142.361 1182.13L-72.0623 1120.92M-142.361 1182.13L-215.834 1255.06M465.282 1356.81L632.615 1356.73M465.282 1356.81L474.456 1276.72M465.282 1356.81L455.718 1449.93L449.544 1515.14M632.615 1356.73L800.209 1337.59M632.615 1356.73L641.048 1449.8M632.615 1356.73L624.659 1276.68M800.209 1337.59L964.934 1299.02L1123.53 1240.89L1266.52 1166.87L1389.98 1080.33L1493.41 983.546L1576.36 878.796L1638.74 768.229M800.209 1337.59L826.598 1428.43M800.209 1337.59L775.125 1259.61M1638.74 768.229L1680.57 653.909M1638.74 768.229L1747.91 796.134M1638.74 768.229L1533.54 749.47M1680.57 653.909L1701.96 537.65L1703.09 421.181L1684.22 306.103L1645.57 193.765M1680.57 653.909L1792.47 670.096M1680.57 653.909L1572.49 646.321M1645.57 193.765L1587.4 85.4319L1524.58 1.884M1645.57 193.765L1748.26 165.775M1645.57 193.765L1545.45 228.753M556.838 1.884L556.969 104.653M556.969 104.653L635.83 108.49L713.041 119.913L787.773 138.671L859.202 164.595L926.415 197.516M556.969 104.653L477.279 108.657L397.503 120.714L318.51 141.243L242.386 169.99L173.175 205.442L111.398 246.962M556.969 104.653L560.36 1067.6M560.36 1067.6L544.447 1067.64H522.405L515.884 1073.46L512.71 1073.12L442.064 1065.45L422.066 1080.67M560.36 1067.6L586.182 1067.6L591.66 1067.01L607.094 1065.28L622.396 1063.6L637.44 1061.91M1030.67 1.884L980.888 91.3751L926.415 197.516M926.415 197.516L876.593 303.026L831.466 406.975L791.034 508.734L755.212 607.583L723.867 702.976L696.956 794.406L674.219 881.452L655.525 963.777L640.657 1041.13L637.44 1061.91M926.415 197.516L988.495 237.393L1044.45 284.099L1093.31 337.507M637.44 1061.91L650.133 1060.52L651.698 1060.14L652.133 1060.05L661.654 1057.91L666.957 1056.68L696.52 1049.98L701.998 1048.71L713.345 1046.14L715.563 1044.63L722.779 1042.06L730.866 1039.95L735.126 1037.71L740.907 1034.93L745.385 1033.12L746.342 1032.78L747.038 1031.9L747.559 1031.64L757.689 1026.63L764.341 1023.3L765.818 1022.54L766.297 1022.33L771.949 1019.5L774.253 1018.36L775.34 1017.56L776.514 1015.84L776.948 1015.37L795.078 995.138L811.771 968.919L823.988 941.309L831.596 912.729L834.465 883.559L832.509 854.179L825.596 824.967L813.598 796.26M796.599 768.651L757.428 849.711L724.432 927.863L697.26 1002.77L706.911 1019.08L713.649 1036.03L715.389 1043.95M685.308 987.973L666.961 1056.68M450.504 1058.79L430.94 990.712L404.768 913.531L373.162 832.597L335.861 748.332L292.691 661.117L243.391 571.499L187.787 479.985L125.792 387.248L57.3631 293.963L-17.4998 200.931L-98.6228 108.953L-172.399 34.8892L-210.396 1.884M250.473 1515.14L274.123 1429.44L301.251 1338.48L327.161 1260.41L351.767 1196.5L374.896 1148.03L399.72 1107.73L422.066 1080.67M422.066 1080.67L508.58 1090.07L596.703 1090.03L685.087 1080.2L772.297 1060.35L856.855 1030.29L933.891 991.766L1001.32 946.41L1058.75 895.236L1105.96 839.341L1142.61 779.694L1168.61 717.392L1183.78 653.319L1187.96 588.403L1181.04 523.487L1162.96 459.457L1133.61 397.07M422.066 1080.67L338.509 1062.16M1133.61 397.07L1093.31 337.507M1133.61 397.07L1220.87 318.411L1315.99 241.904L1402.89 181.836L1493.63 129.86L1587.4 85.4319L1683.3 47.7883L1780.69 16.0891L1833.07 1.884M1133.61 397.07L1054.27 477.034L982.757 557.631L918.937 638.101L862.636 717.813L813.598 796.26M1093.31 337.507L1019.93 425.186L953.672 512.822L894.46 599.7L842.203 685.144L796.599 768.65L813.598 796.26M1093.31 337.507L1173.83 250.461L1261.47 164.932L1341.33 96.7286L1424.63 36.2806L1480.15 1.884M111.398 246.962L57.3583 293.963L11.5796 345.811L-25.4602 401.875L-53.1534 461.438L-71.0214 523.866L-78.3688 588.445L-74.4996 654.373L-58.8053 720.849L-30.5905 786.987L9.4494 849.837L59.4886 906.617L118.571 956.78L185.521 999.734L259.255 1035.06L338.509 1062.16M111.398 246.962L172.175 346.233L227.301 444.45L276.818 540.98L320.814 635.109L359.375 726.285L392.678 814.049L420.98 897.934L444.412 977.645L463.28 1052.85L455.977 1060.01M111.398 246.962L45.0123 147.481L-26.8511 48.6312L-64.8047 1.884M338.509 1062.16L370.723 1049.68L399.286 1047.49M338.509 1062.16L302.512 1086.15L262.472 1122.95L225.127 1168.13L185.392 1228.41L143.439 1302.56L99.5301 1389.31L53.9243 1487.23L41.6653 1515.14M813.598 796.26L771.514 872.894L736.039 947.295L744.212 967.487L748.82 987.973L749.994 1008.59L747.82 1028.99L745.995 1032.4M44.972 1.884L-26.848 48.6312L-98.6244 108.953L-159.967 175.724L-210.093 248.142L-248.264 325.452L-273.609 406.808L-285.174 491.282L-282 577.949L-263.045 665.712L-227.309 753.475L-175.444 837.233L-109.798 913.235L-31.7171 980.596L57.4486 1038.51L156.049 1086.19L262.475 1122.95L374.899 1148.03L491.498 1160.8M491.498 1160.8L500.454 1118.73M491.498 1160.8L483.237 1211M1338.08 743.822L1370.99 661.159L1389.29 576.557L1392.94 491.197L1381.99 406.301L1356.34 322.88L1315.99 241.904L1261.47 164.932L1196.09 96.2223L1121.79 36.365M1338.08 743.822L1433.03 740.997M1338.08 743.822L1235.48 758.069L1142.61 779.694L1059.19 807.851M1121.79 36.365L1066.36 1.884M1121.79 36.365L1148.48 1.884M1121.79 36.365L1052.45 136.605M-539.153 1.884L-580.236 56.8097M-580.236 56.8097L-641.796 169.527M-641.796 169.527L-684.923 289.2M-684.923 289.2L-708.008 414.563M-684.923 289.2L-792 278.283M-708.008 414.563L-709.138 544.311M-708.008 414.563L-792 414.479M-709.138 544.311L-686.445 677.051M-709.138 544.311L-792 552.783M-686.445 677.051L-637.84 811.014L-563.934 940.045L-467.724 1058.12L-350.996 1163.67L-215.834 1255.06M-686.445 677.051L-792 699.308M-215.834 1255.06L-64.7598 1330.76L99.531 1389.31L274.124 1429.44L455.717 1449.93L641.048 1449.8M641.048 1449.8L826.598 1428.43M641.048 1449.8L646.57 1515.14M826.598 1428.43L1008.84 1385.35L1183.96 1320.52L1341.51 1238.07L1477.15 1141.79L1590.27 1034.34L1680.57 918.336L1747.91 796.134M826.598 1428.43L849.944 1515.14M1747.91 796.134L1792.47 670.096M1747.91 796.134L1860.38 832.006M1792.47 670.096L1814.47 542.203L1814.16 414.436L1791.99 288.441L1748.26 165.775M1792.47 670.096L1907.46 693.701M1748.26 165.775L1683.31 47.7883L1648.18 1.884M1748.26 165.775L1852.73 143.94M926.155 1.884L903.549 54.0269M903.549 54.0269L859.205 164.595L818.6 274.151L781.82 381.937L748.823 487.193L719.608 589.162L694.046 687.336L672.047 781.211L653.527 870.366L638.311 954.461L626.182 1033.25L622.399 1063.6M903.549 54.0269L980.891 91.3751L1052.45 136.605M903.549 54.0269L821.513 24.6463M696.521 1049.98L706.912 1019.08L736.04 947.297L724.432 927.864L709.999 910.287L693.13 894.774L674.219 881.453L653.525 870.368L631.396 861.642L608.051 855.276L583.879 851.399L559.186 850.134L534.188 851.483L509.234 855.572L484.627 862.569L461.02 872.222L439.761 884.11L420.98 897.936L404.765 913.532L391.287 930.562L419.763 1005.05L436.022 1055.59M1288.86 1.884L1267.99 20.8529L1196.09 96.2223L1117.14 189.677L1044.45 284.099L978.106 378.649L918.155 472.524M918.155 472.524L864.508 565.092L817.033 655.679L775.602 743.738L739.996 828.718L709.999 910.285L685.306 987.973L697.262 1002.77L682.002 1053.27M918.155 472.524L953.674 512.823L982.759 557.632L1003.63 604.337M918.155 472.524L877.159 437.2M544.449 1067.64L542.536 1019.76L538.753 938.569L534.189 851.481L528.755 758.744L522.45 660.696L515.278 557.757L507.147 450.435L498.105 339.362M498.105 339.362L488.15 225.127L477.281 108.657L466.63 1.884M498.105 339.362L557.404 336.285L616.051 339.237L673.437 347.919L728.911 362.21L781.82 381.937L831.467 406.976L877.159 437.2M498.105 339.362L438.849 348.594M-280.783 1.884L-325.866 49.3485L-389.383 137.448M-389.383 137.448L-438.465 231.872M-389.383 137.448L-297.87 188.707L-210.094 248.142L-113.842 323.892L-25.4583 401.875L55.0995 481.207L127.832 561.172M-438.465 231.872L-471.984 331.648M-438.465 231.872L-341.3 274.405L-248.265 325.452L-146.491 392.012L-53.1514 461.439L31.6673 532.972L108.139 605.813M-471.984 331.648L-488.592 435.724M-471.984 331.648L-370.514 364.738M-488.592 435.724L-486.983 542.919M-488.592 435.724L-384.47 458.782L-285.175 491.282L-177.054 537.608L-78.3669 588.445L11.0169 642.991L91.3141 700.446M-486.983 542.919L-465.724 652.012M-486.983 542.919L-381.949 555.397L-282.001 577.948L-173.402 613.441L-74.4975 654.373L14.8428 699.897M-465.724 652.012L-423.336 761.568L-360.515 866.614L-279.958 962.301L-183.227 1047.45L-72.0623 1120.92M-465.724 652.012L-361.732 653.529M-72.0623 1120.92L51.5358 1181.58L185.394 1228.41L327.164 1260.41L474.456 1276.72M-72.0623 1120.92L-5.32959 1072.66L57.4473 1038.51L124.833 1013.39L185.523 999.733L239.823 996.403L288.036 1002.26L330.554 1016.26M474.456 1276.72L624.659 1276.68M474.456 1276.72L483.237 1211M624.659 1276.68L775.125 1259.61M624.659 1276.68L617.226 1210.92M775.125 1259.61L923.156 1225.21L1065.88 1173.4L1194.87 1107.27L1306.56 1029.83L1400.46 943.08L1476.15 848.994L1533.54 749.47M775.125 1259.61L751.474 1195.83L729.476 1147.4L706.043 1107.22L685.089 1080.2L666.482 1065.07M1533.54 749.47L1572.49 646.321M1533.54 749.47L1433.03 740.997M1572.49 646.321L1593.01 541.191L1595.27 435.64L1579.4 331.057L1545.45 228.753M1572.49 646.321L1468.98 648.429L1370.99 661.159L1264.86 686.073L1168.61 717.392L1081.97 754.234L1004.54 795.796M1545.45 228.753L1493.63 129.86L1424.63 36.2806L1390.81 1.884M1545.45 228.753L1448.76 271.538M528.363 1067.64L525.059 1022.66L517.974 942.026L509.235 855.57L498.801 763.634L486.628 666.513L472.585 564.587L456.674 458.403L438.849 348.594M438.849 348.594L419.112 235.75L397.505 120.714L374.073 4.37037L373.507 1.884M438.849 348.594L380.202 364.233L323.859 386.068M1984.28 1067.9L1898.42 1021.44L1788.12 966.307L1680.57 918.337L1576.36 878.797L1476.15 848.995L1380.68 830.11L1290.64 823.197L1193.61 827.033L1105.96 839.342L1027.32 859.069L957.367 885.373L895.59 917.367L865.896 951.975L827.596 976.297L816.553 983.337L786.034 1009.35M1589.27 1515.14L1582.45 1506.79L1499.84 1409.46L1419.46 1319.42L1341.51 1238.07L1266.52 1166.87L1194.87 1107.26L1126.96 1060.52L1063.36 1027.76L995.149 1004.12L933.894 991.765L879.246 989.616M879.246 989.616L830.816 996.486L788.298 1011.37M879.246 989.616L813.296 1022.49L750.214 1044.84L745.997 1046.35L740.997 1048.12L693.523 1058.92L679.307 1062.12L666.482 1065.07M879.246 989.616L937.111 950.834L986.541 906.996L1027.32 859.067L1059.19 807.851M512.016 1066.5L507.799 1027.64L497.408 947.885L484.627 862.567L469.237 771.896L451.195 676.292L430.371 576.136L406.721 471.934L380.201 364.232L350.812 253.749L318.511 141.243L283.383 27.5546L274.863 1.884M710.043 1045.89L713.65 1036.03L744.213 967.488L781.384 897.007L771.515 872.896L757.429 849.712L739.996 828.719L719.737 810.257L696.957 794.407L672.046 781.213L645.439 770.843L617.442 763.298L588.445 758.661L558.751 757.143L528.754 758.746L498.8 763.635L469.237 771.897L440.891 783.405L415.329 797.569L392.679 814.05L373.159 832.598L356.856 852.915L343.988 874.751L380.636 948.856L410.938 1020.39L422.329 1052.55M710.043 1045.89L709.956 1045.89L709.087 1046.19L702 1048.72M710.043 1045.89L715.565 1044.63L722.781 1042.06L735.128 1037.71L744.562 1035.06L745.866 1033.58L746.344 1032.78L754.605 1031.1L774.733 1024.39L830.816 996.489L880.158 963.524L922.416 926.262L957.369 885.372L984.802 841.66L1004.54 795.796M495.583 1064.73L491.279 1034.55L477.759 956.02L461.021 872.22L440.892 783.403L417.242 689.95L389.897 592.239L358.813 490.734L323.859 386.068M323.859 386.068L285.08 278.914L242.388 169.99L195.958 60.0978L169.394 1.884M323.859 386.068L272.777 413.005L227.302 444.451L187.784 479.986L154.526 519.062L127.832 561.172M-132.491 1.884L-172.401 34.8892L-241.265 108.616L-297.868 188.707L-341.299 274.404L-370.514 364.738M-370.514 364.738L-384.469 458.782L-381.948 555.397L-361.732 653.529M-370.514 364.738L-273.61 406.808L-167.794 463.504L-71.0193 523.866L16.7994 587.096L95.8358 652.433M-361.732 653.529L-322.649 751.831L-265.35 845.875L-192.399 931.361L-105.189 1007.28L-5.32849 1072.66L105.401 1126.57L225.13 1168.14L351.77 1196.5L483.237 1211M-361.732 653.529L-263.046 665.712L-156.056 690.035L-58.8033 720.849L28.8855 757.227L107.356 798.369M483.237 1211L617.226 1210.92M617.226 1210.92L610.357 1160.72L603.139 1118.69L596.705 1090.03L591.097 1073.42L586.185 1067.6M1433.03 740.997L1468.98 648.429L1488.5 553.837L1491.63 458.697L1478.33 364.19L1448.76 271.538M1448.76 271.538L1402.9 181.836L1341.34 96.7286L1268 20.8529L1244.08 1.884M1448.76 271.538L1356.33 322.88L1255.39 389.736L1162.96 459.457L1079.1 531.243L1003.63 604.337M-792 26.9227L-777.697 1.884M1299.21 1515.14L1311.95 1510.33L1499.85 1409.46L1660.66 1292.11L1793.56 1161.68L1898.42 1021.44L1975.37 874.454L1984.28 847.307M1068.92 1515.14L1054.58 1482.81L1008.84 1385.35L964.932 1299.02L923.154 1225.21L883.722 1165.31L846.9 1120.46L807.555 1084.04L772.298 1060.35L740.995 1048.13L713.346 1046.15M828.774 1.884L821.513 24.6463M821.513 24.6463L787.776 138.671L756.91 251.473L728.912 362.209L703.828 470.163L681.569 574.619L662.136 675.028L645.441 770.842L631.399 861.64L619.835 947.127L610.661 1027.01L607.097 1065.28M821.513 24.6463L735.738 3.44313M-792 1431.42L-719.832 1501.19L-700.356 1515.14M479.889 1063.01L476.411 1042.98L460.064 966.011L439.761 884.108L415.329 797.567L386.548 706.727L353.291 612.009L315.381 513.918L272.776 413.004L225.345 309.939L173.176 205.442L116.311 100.311L58.5768 1.884M685.307 987.975L671.308 974.991L655.527 963.779L638.311 954.463L619.835 947.129L600.402 941.775L580.229 938.529L559.622 937.433L538.754 938.572L517.974 942.028L497.41 947.887L477.76 956.023L460.066 966.013L444.415 977.648L430.938 990.714L419.765 1005.05L410.939 1020.39L404.592 1036.54L402.288 1046.86M500.454 1118.73L508.583 1090.07L515.886 1073.46L591.271 1073.42L606.531 1071.69L666.482 1065.07M500.454 1118.73L399.723 1107.73L302.515 1086.15L210.393 1054.53L124.834 1013.39L47.32 963.355L-20.8482 905.1L-78.3654 839.214L-124.1 766.458L-156.054 690.034L-173.401 613.441L-177.052 537.608L-167.792 463.503L-146.49 392.012L-113.84 323.892L-70.6268 259.946L-17.5011 200.931L45.0157 147.481L116.313 100.311L195.959 60.0978L283.386 27.5546L374.074 4.37037L390.42 1.884M459.806 1060.86L442.068 1065.45L425.593 1061.83L370.727 1049.69L368.597 1048.97L302.95 1026.54L259.259 1035.06L210.394 1054.53L156.051 1086.19L105.402 1126.57L51.538 1181.58L-5.32697 1250.08L-64.7568 1330.76L-126.534 1422.19L-185.398 1515.14M919.155 1515.14L1054.58 1482.81L1246.87 1410.81L1419.46 1319.42L1567.53 1212.86L1690.52 1094.2L1788.12 966.306L1860.38 832.006M1860.38 832.006L1907.46 693.701M1860.38 832.006L1975.37 874.454L1984.28 878.121M1907.46 693.701L1929.72 553.795L1927.72 414.352L1901.9 277.187L1852.73 143.94M1907.46 693.701L1984.28 713.261M1852.73 143.94L1780.69 16.0891L1769.6 1.884M1852.73 143.94L1958.24 127.29L1984.28 124.255M666.482 1065.07L650.135 1060.52M653.876 1050.57L640.661 1041.13L626.183 1033.25L610.662 1027.01L594.36 1022.45M594.36 1022.45L600.403 941.773L608.055 855.275L617.445 763.296L628.618 666.092L641.66 564.08M594.36 1022.45L591.665 1067.01M335.945 1017.14L332.902 1015.25M335.945 1017.14L335.206 1016.55L332.293 1014.49M335.945 1017.14L341.075 1020.9M332.902 1015.25L332.293 1014.49M332.902 1015.25L331.598 1015.67M332.293 1014.49L301.948 989.281M332.293 1014.49L289.167 989.87M301.948 989.281L275.386 959.689L253.779 926.768L195.392 884.825L128.79 847.014M301.948 989.281L331.598 1015.67M301.948 989.281L290.036 981.988L252.387 959.015M128.79 847.014L53.6222 814.134L-30.5884 786.988L-124.102 766.459L-227.31 753.477L-322.65 751.832L-423.337 761.57L-528.675 781.677L-637.84 811.015L-750.178 848.279L-792 864.296M128.79 847.014L107.356 798.369M128.79 847.014L158.7 893.087M796.602 768.647L775.603 743.735L751.215 721.774L723.869 702.974L694.046 687.334L662.135 675.025L628.617 666.089L593.881 660.609L558.361 658.796L522.451 660.694L486.628 666.51L451.197 676.29L417.243 689.948L386.55 706.725L359.379 726.283L335.859 748.329L316.252 772.484L300.688 798.45L289.385 825.85L334.685 897.721L372.987 968.116L404.593 1036.53L409.505 1049.3M1052.45 136.605L988.498 237.393L930.068 337.845L877.159 437.2M877.159 437.2L829.773 534.742L787.863 629.797L751.214 721.776L719.739 810.255L693.132 894.773L671.307 974.989L653.874 1050.57L661.656 1057.91M735.738 3.44313L725.261 1.884M735.738 3.44313L736.087 1.884M735.738 3.44313L713.045 119.913L692.264 235.033L673.439 347.919L656.572 457.854L641.66 564.08M653.873 1050.57L652.135 1060.05M465.023 1061.41L463.284 1052.85M373.25 1036.62L369.206 1029.33L367.12 1008.59L368.424 988.099L372.989 968.119L380.641 948.854L391.292 930.561L356.86 852.914L316.255 772.486L269.171 689.697L215.307 605.053L154.53 519.061L86.622 432.436L11.585 345.811L-70.6248 259.946L-159.965 175.724L-241.262 108.616L-325.863 49.3485L-405.335 1.884M352.422 1026.67L347.727 1020.22M352.422 1026.67L351.769 1026.38M352.422 1026.67L354.378 1027.6L361.422 1030.97M347.727 1020.22L336.597 995.772M347.727 1020.22L351.769 1026.38M347.727 1020.22L341.249 1013.05L304.383 972.123M336.597 995.772L359.639 1028.48L361.422 1030.97M336.597 995.772L329.903 970.985M336.597 995.772L291.123 942.869M291.123 942.869L304.383 972.123M291.123 942.869L283.211 913.236M291.123 942.869L238.084 891.906M238.084 891.906L231.432 886.679L176.959 843.514M238.084 891.906L253.779 926.767L297.253 965.716L304.383 972.123M238.084 891.906L228.781 856.624M176.959 843.514L166.177 801.783M176.959 843.514L195.392 884.824L220.912 923.9L265.734 953.365L275.386 959.688L313.382 991.893L322.598 999.734M176.959 843.514L107.356 798.369M166.177 801.783L162.743 760.135M166.177 801.783L223.26 851.775L228.781 856.624M166.177 801.783L159.569 796.892L94.9665 749.302L14.8428 699.897M162.743 760.135L166.264 719.162L95.8358 652.433M162.743 760.135L225.65 821.384L228.781 856.624M162.743 760.135L91.3141 700.446M95.8358 652.433L108.139 605.813M95.8358 652.433L91.3141 700.446M351.769 1026.38L346.292 1023.76L343.249 1022.03L341.075 1020.9M304.383 972.123L322.598 999.734M228.781 856.624L278.603 908.43L283.211 913.236M91.3141 700.446L94.9664 749.303L107.356 798.369M370.899 1035.48L369.203 1029.33L329.903 970.985M329.903 970.985L327.468 946.157L329.119 921.666L334.684 897.723L343.988 874.75L300.687 798.452L250.431 720.427L192.871 641.136L127.832 561.172M329.903 970.985L326.076 966.265L283.211 913.236M127.832 561.172L108.139 605.813M1984.28 417.048L1927.72 414.35L1814.17 414.434L1703.09 421.179L1595.27 435.638L1491.63 458.695L1392.94 491.195L1285.69 537.564L1187.96 588.401L1099.58 642.905L1020.32 700.402L949.98 760.09L888.16 821.339L884.899 856.031L875.943 890.049L861.51 922.929L841.642 954.206L816.558 983.333L787.343 1010.65L776.952 1016.59L775.126 1017.39L770.648 1018.53L765.822 1022.54M1984.28 561.931L1929.72 553.796L1814.47 542.203L1701.96 537.651L1593.01 541.192L1488.5 553.838L1389.29 576.558L1281.65 612.22L1183.79 653.32L1095.45 699.013L1016.45 748.501L952.85 796.218L946.373 801.108L884.9 856.034L831.6 912.729L795.603 958.466L786.039 970.564L779.605 994.465L769.344 1017.52L766.302 1022.33M1314.95 1515.14L1311.95 1510.34L1246.87 1410.81L1183.96 1320.52L1123.53 1240.89L1065.88 1173.41L1011.41 1119.28L960.368 1079.78L905.808 1048.97L856.856 1030.3L813.294 1022.5L774.732 1024.4L745.865 1034.01L740.909 1034.93M1003.63 604.337L936.372 678.063L877.116 751.789L825.598 824.967L781.385 897.006L787.037 921.497L788.559 946.157L786.037 970.564L747.823 1028.99L747.04 1031.9M1003.63 604.337L1016.1 652.14L1020.32 700.405L1016.45 748.501L1004.54 795.796M641.66 564.08L681.569 574.62L719.609 589.163L755.215 607.584L787.864 629.798L817.035 655.68L842.207 685.145L862.64 717.814L877.117 751.789L885.595 786.481L888.16 821.342L834.469 883.56L788.561 946.158L749.998 1008.59L735.695 1036.58L735.564 1036.83M641.66 564.08L600.272 557.674L558.015 555.524L515.279 557.758L472.587 564.588L430.374 576.137L389.899 592.24L353.293 612.01L320.818 635.11L292.69 661.118L269.17 689.698L250.433 720.428L236.782 752.885L228.435 786.65L225.652 821.384L280.43 883.602L327.47 946.158L367.118 1008.59L383.813 1040.2L384.074 1040.67M1004.54 795.796L943.24 836.517L936.023 841.322L919.025 880.271M919.025 880.271L984.802 841.659L1059.19 807.851M919.025 880.271L895.592 917.366L850.379 948.222L841.641 954.207L795.08 995.138L777.95 1014.95L776.95 1016.59L775.602 1017.69M919.025 880.271L861.507 922.931L818.207 962.934L811.773 968.92L769.342 1017.52M723.216 1041.21L723.65 1040.32L748.822 987.971L787.036 921.495L832.51 854.177L885.593 786.478L946.674 718.907L936.371 678.061L918.938 638.099L894.461 599.698L864.508 565.09L829.772 534.74L791.036 508.732L748.822 487.191L703.827 470.161L656.569 457.852L607.66 450.349L557.665 447.821L507.147 450.433L456.674 458.401L406.721 471.932L358.812 490.732L315.382 513.916L276.819 540.978L243.388 571.497L215.303 605.051L192.871 641.134L176.437 679.325L166.264 719.16L228.433 786.647L282.558 854.345L329.119 921.664L368.42 988.097L396.114 1043.78L396.722 1044.96M108.139 605.813L176.438 679.328L236.78 752.885L289.384 825.853L282.558 854.348L280.428 883.602L283.211 913.236M158.7 893.087L195.696 934.524M158.7 893.087L220.912 923.901L252.387 959.015M158.7 893.087L88.3583 868.091L9.45148 849.838L-78.3668 839.215L-175.445 837.234L-265.351 845.876L-360.516 866.615L-460.29 898.399L-563.933 940.047L-670.88 990.251L-780.436 1047.66L-792 1054.2M195.696 934.524L239.084 971.07L289.167 989.87M195.696 934.524L252.387 959.015M289.167 989.87L331.598 1015.67M289.167 989.87L252.387 959.015M341.075 1020.9L342.771 1021.53M341.075 1020.9L331.598 1015.67M361.422 1030.97L371.029 1035.99L373.55 1037.17L375.898 1037.88L384.593 1041.63L397.679 1046.95L400.765 1047.16L403.244 1047.2L409.591 1049.56L413.025 1050.53M374.638 1039.07L364.248 1035.02L341.729 1027.85L288.037 1002.27L239.085 971.072L182.35 959.691L118.574 956.783L47.3195 963.358L-31.7173 980.599L-105.189 1007.28L-183.226 1047.45L-265.306 1100.02L-350.994 1163.67L-439.682 1237.06L-531.022 1318.75L-624.492 1407.27L-719.832 1501.19L-733.657 1515.14M341.641 1020.3L340.815 1019.67M340.815 1019.67L340.38 1019.5L322.598 999.734M340.815 1019.67L341.51 1020.47L343.249 1022.03L346.292 1023.76M340.815 1019.67L322.598 999.734M1059.19 807.851L1081.97 754.233L1095.44 699.011L1099.57 642.906L1094.14 586.758L1079.1 531.242L1054.27 477.033L1019.93 425.185L978.107 378.647L930.068 337.843L876.595 303.025L818.6 274.15L756.91 251.472L692.262 235.032L625.443 224.999L557.143 221.669L488.15 225.126L419.112 235.749L350.814 253.748L285.081 278.913L225.347 309.938L172.178 346.232L125.79 387.247L86.6192 432.435L55.1002 481.206L31.6679 532.971L16.8 587.095L11.0175 642.99L14.8428 699.897M14.8428 699.897L28.886 757.225L53.6227 814.132L88.3588 868.088L131.572 916.775L182.35 959.687L239.823 996.402L302.948 1026.54L341.728 1027.85L364.248 1035.01L371.03 1035.98L373.247 1036.62L374.508 1037.21L375.247 1038.47L384.594 1041.63L396.723 1044.96L400.766 1047.15L409.591 1049.56L413.026 1050.53L422.33 1052.55L450.501 1058.79L455.979 1060.01L459.805 1060.85L465.021 1061.4L479.89 1063L495.584 1064.73L512.017 1066.5L522.407 1067.64M1984.28 272.804L1901.9 277.188L1791.99 288.443L1684.22 306.105L1579.4 331.059L1478.32 364.192L1381.99 406.303L1276.95 463.083L1181.05 523.489L1094.14 586.761L1016.1 652.141L946.675 718.911L949.979 760.094L946.37 801.109L936.024 841.324L882.158 885.037L875.942 890.053L823.99 941.311L779.602 994.466L758.647 1025.2L757.691 1026.63M1900.81 1515.14L1853.2 1469.37L1755.99 1378.1L1660.65 1292.11L1567.53 1212.86L1477.15 1141.79L1389.98 1080.33L1306.55 1029.83L1227.39 991.56L1153 966.646L1073.14 951.345L1001.32 946.414L937.108 950.839L880.156 963.527L830.03 983.508L787.339 1010.66L781.687 1013.01M-792 1H1984.24V1517.59H-792V1Z" stroke="url(#paint0_radial_113_2506)" stroke-width="1.08501" stroke-linecap="round" stroke-linejoin="round"/>
<defs>
<radialGradient id="paint0_radial_113_2506" cx="0" cy="0" r="1" gradientUnits="userSpaceOnUse" gradientTransform="translate(596.141 834) rotate(90) scale(683.587 1251.38)">
<stop stop-color="#222233"/>
<stop offset="1" stop-color="#1A1A3E" stop-opacity="0"/>
</radialGradient>
</defs>
</svg>
